<mxfile host="app.diagrams.net" modified="2022-03-30T19:32:48.492Z" agent="5.0 (Windows NT 10.0; Win64; x64) AppleWebKit/537.36 (KHTML, like Gecko) Chrome/99.0.4844.74 Safari/537.36 Edg/99.0.1150.55" etag="tO2rpML46xNQw4lKL8CT" version="17.3.0" type="github">
  <diagram id="R2lEEEUBdFMjLlhIrx00" name="Page-1">
    <mxGraphModel dx="1594" dy="422" grid="1" gridSize="10" guides="1" tooltips="1" connect="1" arrows="1" fold="1" page="1" pageScale="1" pageWidth="850" pageHeight="1100" math="0" shadow="0" extFonts="Permanent Marker^https://fonts.googleapis.com/css?family=Permanent+Marker">
      <root>
        <mxCell id="0" />
        <mxCell id="1" parent="0" />
        <mxCell id="5cgn6f4fCLl54KjcwGRz-24" style="edgeStyle=orthogonalEdgeStyle;rounded=0;orthogonalLoop=1;jettySize=auto;html=1;entryX=0;entryY=0.5;entryDx=0;entryDy=0;" edge="1" parent="1" source="5cgn6f4fCLl54KjcwGRz-2" target="5cgn6f4fCLl54KjcwGRz-9">
          <mxGeometry relative="1" as="geometry" />
        </mxCell>
        <mxCell id="5cgn6f4fCLl54KjcwGRz-2" value="&lt;h3&gt;Faz&lt;/h3&gt;" style="shape=rhombus;perimeter=rhombusPerimeter;whiteSpace=wrap;html=1;align=center;fillColor=#ffe6cc;strokeColor=#d79b00;" vertex="1" parent="1">
          <mxGeometry x="210" y="60" width="120" height="60" as="geometry" />
        </mxCell>
        <mxCell id="5cgn6f4fCLl54KjcwGRz-26" value="" style="edgeStyle=orthogonalEdgeStyle;rounded=0;orthogonalLoop=1;jettySize=auto;html=1;" edge="1" parent="1" source="5cgn6f4fCLl54KjcwGRz-5" target="5cgn6f4fCLl54KjcwGRz-15">
          <mxGeometry relative="1" as="geometry" />
        </mxCell>
        <mxCell id="5cgn6f4fCLl54KjcwGRz-5" value="&lt;h3&gt;Contém&lt;/h3&gt;" style="shape=rhombus;perimeter=rhombusPerimeter;whiteSpace=wrap;html=1;align=center;fillColor=#ffe6cc;strokeColor=#d79b00;" vertex="1" parent="1">
          <mxGeometry x="420" y="180" width="120" height="60" as="geometry" />
        </mxCell>
        <mxCell id="5cgn6f4fCLl54KjcwGRz-7" value="Cliente" style="swimlane;childLayout=stackLayout;horizontal=1;startSize=30;horizontalStack=0;rounded=1;fontSize=14;fontStyle=0;strokeWidth=2;resizeParent=0;resizeLast=1;shadow=0;dashed=0;align=center;fontFamily=Verdana;labelBackgroundColor=none;fillColor=#ffe6cc;strokeColor=#d79b00;" vertex="1" parent="1">
          <mxGeometry y="30" width="160" height="120" as="geometry" />
        </mxCell>
        <mxCell id="5cgn6f4fCLl54KjcwGRz-8" value="+ CPF&#xa;+ Nome&#xa;+ E-mail&#xa;+ Telefone&#xa;+ Endereço" style="align=left;strokeColor=none;fillColor=none;spacingLeft=4;fontSize=12;verticalAlign=top;resizable=0;rotatable=0;part=1;fontStyle=0;labelBorderColor=none;labelBackgroundColor=none;fontFamily=Verdana;" vertex="1" parent="5cgn6f4fCLl54KjcwGRz-7">
          <mxGeometry y="30" width="160" height="90" as="geometry" />
        </mxCell>
        <mxCell id="5cgn6f4fCLl54KjcwGRz-9" value="Pedido" style="swimlane;childLayout=stackLayout;horizontal=1;startSize=30;horizontalStack=0;rounded=1;fontSize=14;fontStyle=0;strokeWidth=2;resizeParent=0;resizeLast=1;shadow=0;dashed=0;align=center;fillColor=#ffe6cc;strokeColor=#d79b00;fontFamily=Verdana;" vertex="1" parent="1">
          <mxGeometry x="400" y="30" width="160" height="120" as="geometry" />
        </mxCell>
        <mxCell id="5cgn6f4fCLl54KjcwGRz-10" value="+ Produto&#xa;+ Data&#xa;+ Hora&#xa;+ Quantidade&#xa;+ Preço" style="align=left;strokeColor=none;fillColor=none;spacingLeft=4;fontSize=12;verticalAlign=top;resizable=0;rotatable=0;part=1;" vertex="1" parent="5cgn6f4fCLl54KjcwGRz-9">
          <mxGeometry y="30" width="160" height="90" as="geometry" />
        </mxCell>
        <mxCell id="5cgn6f4fCLl54KjcwGRz-14" value="Produto" style="swimlane;childLayout=stackLayout;horizontal=1;startSize=30;horizontalStack=0;rounded=1;fontSize=14;fontStyle=0;strokeWidth=2;resizeParent=0;resizeLast=1;shadow=0;dashed=0;align=center;fillColor=#ffe6cc;strokeColor=#d79b00;fontFamily=Verdana;" vertex="1" parent="1">
          <mxGeometry x="400" y="280" width="160" height="120" as="geometry" />
        </mxCell>
        <mxCell id="5cgn6f4fCLl54KjcwGRz-15" value="+ Código&#xa;+ Categoria&#xa;+ Quantidade&#xa;+ Valor unitário&#xa;+ Descrição" style="align=left;strokeColor=none;fillColor=none;spacingLeft=4;fontSize=12;verticalAlign=top;resizable=0;rotatable=0;part=1;" vertex="1" parent="5cgn6f4fCLl54KjcwGRz-14">
          <mxGeometry y="30" width="160" height="90" as="geometry" />
        </mxCell>
        <mxCell id="5cgn6f4fCLl54KjcwGRz-28" style="edgeStyle=orthogonalEdgeStyle;rounded=0;orthogonalLoop=1;jettySize=auto;html=1;entryX=0;entryY=0.5;entryDx=0;entryDy=0;" edge="1" parent="1" source="5cgn6f4fCLl54KjcwGRz-16" target="5cgn6f4fCLl54KjcwGRz-17">
          <mxGeometry relative="1" as="geometry" />
        </mxCell>
        <mxCell id="5cgn6f4fCLl54KjcwGRz-16" value="&lt;h3&gt;Efetua&lt;/h3&gt;" style="shape=rhombus;perimeter=rhombusPerimeter;whiteSpace=wrap;html=1;align=center;fillColor=#ffe6cc;strokeColor=#d79b00;" vertex="1" parent="1">
          <mxGeometry x="600" y="60" width="120" height="60" as="geometry" />
        </mxCell>
        <mxCell id="5cgn6f4fCLl54KjcwGRz-17" value="Compra" style="swimlane;childLayout=stackLayout;horizontal=1;startSize=30;horizontalStack=0;rounded=1;fontSize=14;fontStyle=0;strokeWidth=2;resizeParent=0;resizeLast=1;shadow=0;dashed=0;align=center;fillColor=#ffe6cc;strokeColor=#d79b00;fontFamily=Verdana;" vertex="1" parent="1">
          <mxGeometry x="760" y="30" width="160" height="120" as="geometry" />
        </mxCell>
        <mxCell id="5cgn6f4fCLl54KjcwGRz-18" value="+ Código-produto&#xa;+ Data&#xa;+ CPF-cliente&#xa;+ Cupom&#xa;+ Preço" style="align=left;strokeColor=none;fillColor=none;spacingLeft=4;fontSize=12;verticalAlign=top;resizable=0;rotatable=0;part=1;" vertex="1" parent="5cgn6f4fCLl54KjcwGRz-17">
          <mxGeometry y="30" width="160" height="90" as="geometry" />
        </mxCell>
        <mxCell id="5cgn6f4fCLl54KjcwGRz-32" style="edgeStyle=orthogonalEdgeStyle;rounded=0;orthogonalLoop=1;jettySize=auto;html=1;entryX=0.5;entryY=0;entryDx=0;entryDy=0;" edge="1" parent="1" source="5cgn6f4fCLl54KjcwGRz-20" target="5cgn6f4fCLl54KjcwGRz-21">
          <mxGeometry relative="1" as="geometry" />
        </mxCell>
        <mxCell id="5cgn6f4fCLl54KjcwGRz-20" value="&lt;h3&gt;Através&lt;/h3&gt;" style="shape=rhombus;perimeter=rhombusPerimeter;whiteSpace=wrap;html=1;align=center;fillColor=#ffe6cc;strokeColor=#d79b00;" vertex="1" parent="1">
          <mxGeometry x="770" y="180" width="120" height="60" as="geometry" />
        </mxCell>
        <mxCell id="5cgn6f4fCLl54KjcwGRz-21" value="Transação" style="swimlane;childLayout=stackLayout;horizontal=1;startSize=30;horizontalStack=0;rounded=1;fontSize=14;fontStyle=0;strokeWidth=2;resizeParent=0;resizeLast=1;shadow=0;dashed=0;align=center;fillColor=#ffe6cc;strokeColor=#d79b00;fontFamily=Verdana;" vertex="1" parent="1">
          <mxGeometry x="750" y="280" width="160" height="120" as="geometry" />
        </mxCell>
        <mxCell id="5cgn6f4fCLl54KjcwGRz-22" value="+ ID&#xa;+ Número da transição&#xa;+ Data / hora&#xa;+ Valor da transação&#xa;+ Método de pagamento&#xa;+Endereço do Cliente" style="align=left;strokeColor=none;fillColor=none;spacingLeft=4;fontSize=12;verticalAlign=top;resizable=0;rotatable=0;part=1;" vertex="1" parent="5cgn6f4fCLl54KjcwGRz-21">
          <mxGeometry y="30" width="160" height="90" as="geometry" />
        </mxCell>
        <mxCell id="5cgn6f4fCLl54KjcwGRz-23" style="edgeStyle=orthogonalEdgeStyle;rounded=0;orthogonalLoop=1;jettySize=auto;html=1;entryX=0;entryY=0.5;entryDx=0;entryDy=0;" edge="1" parent="1" source="5cgn6f4fCLl54KjcwGRz-8" target="5cgn6f4fCLl54KjcwGRz-2">
          <mxGeometry relative="1" as="geometry" />
        </mxCell>
        <mxCell id="5cgn6f4fCLl54KjcwGRz-25" style="edgeStyle=orthogonalEdgeStyle;rounded=0;orthogonalLoop=1;jettySize=auto;html=1;entryX=0.5;entryY=0;entryDx=0;entryDy=0;" edge="1" parent="1" source="5cgn6f4fCLl54KjcwGRz-10" target="5cgn6f4fCLl54KjcwGRz-5">
          <mxGeometry relative="1" as="geometry" />
        </mxCell>
        <mxCell id="5cgn6f4fCLl54KjcwGRz-27" style="edgeStyle=orthogonalEdgeStyle;rounded=0;orthogonalLoop=1;jettySize=auto;html=1;entryX=0;entryY=0.5;entryDx=0;entryDy=0;" edge="1" parent="1" source="5cgn6f4fCLl54KjcwGRz-10" target="5cgn6f4fCLl54KjcwGRz-16">
          <mxGeometry relative="1" as="geometry" />
        </mxCell>
        <mxCell id="5cgn6f4fCLl54KjcwGRz-29" style="edgeStyle=orthogonalEdgeStyle;rounded=0;orthogonalLoop=1;jettySize=auto;html=1;entryX=0.5;entryY=0;entryDx=0;entryDy=0;" edge="1" parent="1" source="5cgn6f4fCLl54KjcwGRz-18" target="5cgn6f4fCLl54KjcwGRz-20">
          <mxGeometry relative="1" as="geometry" />
        </mxCell>
        <mxCell id="5cgn6f4fCLl54KjcwGRz-36" value="" style="endArrow=none;html=1;rounded=0;fontFamily=Verdana;exitX=1.001;exitY=0.095;exitDx=0;exitDy=0;exitPerimeter=0;entryX=-0.027;entryY=0.08;entryDx=0;entryDy=0;entryPerimeter=0;" edge="1" parent="1" source="5cgn6f4fCLl54KjcwGRz-9" target="5cgn6f4fCLl54KjcwGRz-17">
          <mxGeometry relative="1" as="geometry">
            <mxPoint x="580" y="40" as="sourcePoint" />
            <mxPoint x="740" y="40" as="targetPoint" />
          </mxGeometry>
        </mxCell>
        <mxCell id="5cgn6f4fCLl54KjcwGRz-37" value="(1,N)" style="resizable=0;html=1;align=left;verticalAlign=bottom;labelBackgroundColor=none;labelBorderColor=none;fontFamily=Verdana;" connectable="0" vertex="1" parent="5cgn6f4fCLl54KjcwGRz-36">
          <mxGeometry x="-1" relative="1" as="geometry" />
        </mxCell>
        <mxCell id="5cgn6f4fCLl54KjcwGRz-38" value="(1,n)" style="resizable=0;html=1;align=right;verticalAlign=bottom;labelBackgroundColor=none;labelBorderColor=none;fontFamily=Verdana;" connectable="0" vertex="1" parent="5cgn6f4fCLl54KjcwGRz-36">
          <mxGeometry x="1" relative="1" as="geometry" />
        </mxCell>
        <mxCell id="5cgn6f4fCLl54KjcwGRz-39" value="" style="endArrow=none;html=1;rounded=0;fontFamily=Verdana;entryX=0.95;entryY=0;entryDx=0;entryDy=0;entryPerimeter=0;exitX=0.95;exitY=0.995;exitDx=0;exitDy=0;exitPerimeter=0;" edge="1" parent="1" source="5cgn6f4fCLl54KjcwGRz-10" target="5cgn6f4fCLl54KjcwGRz-14">
          <mxGeometry relative="1" as="geometry">
            <mxPoint x="550" y="160" as="sourcePoint" />
            <mxPoint x="548" y="270" as="targetPoint" />
            <Array as="points" />
          </mxGeometry>
        </mxCell>
        <mxCell id="5cgn6f4fCLl54KjcwGRz-40" value="(1,n)" style="resizable=0;html=1;align=left;verticalAlign=bottom;labelBackgroundColor=none;labelBorderColor=none;fontFamily=Verdana;" connectable="0" vertex="1" parent="5cgn6f4fCLl54KjcwGRz-39">
          <mxGeometry x="-1" relative="1" as="geometry" />
        </mxCell>
        <mxCell id="5cgn6f4fCLl54KjcwGRz-41" value="(1,n)" style="resizable=0;html=1;align=right;verticalAlign=bottom;labelBackgroundColor=none;labelBorderColor=none;fontFamily=Verdana;" connectable="0" vertex="1" parent="5cgn6f4fCLl54KjcwGRz-39">
          <mxGeometry x="1" relative="1" as="geometry" />
        </mxCell>
        <mxCell id="5cgn6f4fCLl54KjcwGRz-42" value="" style="endArrow=none;html=1;rounded=0;fontFamily=Verdana;entryX=0.927;entryY=-0.026;entryDx=0;entryDy=0;entryPerimeter=0;exitX=0.859;exitY=1.005;exitDx=0;exitDy=0;exitPerimeter=0;" edge="1" parent="1" source="5cgn6f4fCLl54KjcwGRz-18" target="5cgn6f4fCLl54KjcwGRz-21">
          <mxGeometry relative="1" as="geometry">
            <mxPoint x="900" y="160" as="sourcePoint" />
            <mxPoint x="900" y="270" as="targetPoint" />
          </mxGeometry>
        </mxCell>
        <mxCell id="5cgn6f4fCLl54KjcwGRz-43" value="(1,n)" style="resizable=0;html=1;align=left;verticalAlign=bottom;labelBackgroundColor=none;labelBorderColor=none;fontFamily=Verdana;" connectable="0" vertex="1" parent="5cgn6f4fCLl54KjcwGRz-42">
          <mxGeometry x="-1" relative="1" as="geometry" />
        </mxCell>
        <mxCell id="5cgn6f4fCLl54KjcwGRz-44" value="1" style="resizable=0;html=1;align=right;verticalAlign=bottom;labelBackgroundColor=none;labelBorderColor=none;fontFamily=Verdana;" connectable="0" vertex="1" parent="5cgn6f4fCLl54KjcwGRz-42">
          <mxGeometry x="1" relative="1" as="geometry" />
        </mxCell>
        <mxCell id="5cgn6f4fCLl54KjcwGRz-45" value="" style="endArrow=none;html=1;rounded=0;fontFamily=Verdana;entryX=-0.016;entryY=0.087;entryDx=0;entryDy=0;entryPerimeter=0;" edge="1" parent="1" target="5cgn6f4fCLl54KjcwGRz-9">
          <mxGeometry relative="1" as="geometry">
            <mxPoint x="160" y="40" as="sourcePoint" />
            <mxPoint x="389.0400000000001" y="41.39999999999998" as="targetPoint" />
          </mxGeometry>
        </mxCell>
        <mxCell id="5cgn6f4fCLl54KjcwGRz-46" value="N" style="resizable=0;html=1;align=left;verticalAlign=bottom;labelBackgroundColor=none;labelBorderColor=none;fontFamily=Verdana;" connectable="0" vertex="1" parent="5cgn6f4fCLl54KjcwGRz-45">
          <mxGeometry x="-1" relative="1" as="geometry">
            <mxPoint x="11" as="offset" />
          </mxGeometry>
        </mxCell>
        <mxCell id="5cgn6f4fCLl54KjcwGRz-47" value="(0,N)" style="resizable=0;html=1;align=right;verticalAlign=bottom;labelBackgroundColor=none;labelBorderColor=none;fontFamily=Verdana;" connectable="0" vertex="1" parent="5cgn6f4fCLl54KjcwGRz-45">
          <mxGeometry x="1" relative="1" as="geometry" />
        </mxCell>
      </root>
    </mxGraphModel>
  </diagram>
</mxfile>
